<?xml version="1.0" standalone="no"?>
<!DOCTYPE svg PUBLIC "-//W3C//DTD SVG 20010904//EN"
 "http://www.w3.org/TR/2001/REC-SVG-20010904/DTD/svg10.dtd">
<svg version="1.0" xmlns="http://www.w3.org/2000/svg"
 width="389.000000pt" height="129.000000pt" viewBox="0 0 389.000000 129.000000"
 preserveAspectRatio="xMidYMid meet">

<g transform="translate(0.000000,129.000000) scale(0.100000,-0.100000)"
fill="#000000" stroke="none">
<path d="M0 645 l0 -645 324 0 c347 0 337 -1 335 48 0 14 -2 13 -10 -3 -5 -13
-6 11 -2 65 3 47 5 94 5 105 -1 11 3 44 9 74 8 38 14 50 20 40 5 -8 9 -23 9
-33 0 -11 7 -28 17 -38 9 -10 11 -18 6 -18 -8 0 -8 -13 -2 -42 7 -27 6 -52 0
-71 -9 -23 -8 -28 3 -24 10 4 13 -3 11 -24 -1 -16 -5 -32 -9 -36 -3 -3 -6 -15
-6 -25 0 -17 12 -18 185 -18 169 0 185 1 185 18 0 9 5 24 10 32 7 11 8 6 4
-17 l-6 -33 110 0 c79 0 112 4 115 13 3 9 9 9 26 -1 15 -9 98 -12 320 -12 290
0 299 1 304 20 3 13 0 20 -9 20 -10 0 -13 7 -8 24 3 15 0 29 -11 39 -9 9 -13
21 -10 27 11 18 23 2 30 -39 4 -22 13 -45 21 -52 13 -10 14 -6 8 29 -6 38 -5
42 15 42 25 0 38 -39 22 -68 -6 -12 -11 -25 -11 -31 0 -6 108 -10 313 -9 171
0 305 2 295 5 -25 7 -42 56 -28 83 10 19 17 21 53 15 23 -4 45 -10 50 -14 9
-9 -12 -73 -27 -83 -6 -4 116 -8 272 -8 242 0 283 2 288 15 8 19 24 19 24 0 0
-13 22 -15 140 -15 139 0 141 0 130 20 -6 12 -10 35 -8 53 4 38 36 53 92 43
41 -8 51 -23 41 -64 -6 -26 -7 -26 -21 -8 -7 11 -15 18 -18 15 -6 -7 -26 -47
-26 -53 0 -3 70 -6 155 -6 l155 0 0 645 0 645 -1945 0 -1945 0 0 -645z m1950
587 c0 -7 -4 -10 -10 -7 -5 3 -10 0 -11 -7 0 -10 -2 -10 -6 0 -2 6 -9 10 -14
6 -5 -3 -9 1 -9 8 0 7 11 13 25 13 14 0 25 -6 25 -13z m-160 -89 c0 -3 -6 -3
-12 0 -32 11 -90 -39 -103 -88 -6 -23 -9 -25 -12 -12 -7 29 6 67 22 67 8 0 15
7 15 15 0 8 15 18 33 23 30 8 57 6 57 -5z m88 -148 c-2 -32 1 -45 10 -45 7 0
10 -5 6 -12 -5 -8 0 -9 16 -5 50 13 131 -49 116 -88 -4 -10 -2 -14 5 -9 12 7
29 -12 29 -33 0 -7 -7 -13 -16 -13 -8 0 -12 -5 -9 -10 4 -6 10 -8 15 -5 11 7
21 -21 14 -40 -7 -18 -24 -20 -24 -2 0 8 -3 8 -9 -2 -14 -22 -64 36 -56 66 4
16 -1 25 -17 34 -19 10 -19 12 -5 21 27 15 21 38 -10 38 -40 0 -54 -13 -55
-48 -1 -18 -9 -39 -19 -48 -16 -14 -18 -14 -22 3 -10 37 -6 93 8 107 17 17 11
42 -17 69 -10 10 -18 27 -18 37 0 27 7 25 24 -7 l15 -28 1 33 c0 17 5 32 11
32 7 0 10 -17 7 -45z m764 1 c4 -6 8 -25 8 -43 0 -17 3 -40 6 -50 4 -14 4 -15
-4 -4 -10 13 -36 6 -28 -8 3 -4 -4 -12 -14 -19 -16 -10 -21 -6 -39 27 -22 44
-19 54 14 39 25 -11 55 -5 55 12 0 5 -11 10 -25 10 -14 0 -26 3 -26 8 -8 47
-6 52 20 45 14 -3 29 -11 33 -17z m-1042 -25 c0 -15 -5 -19 -21 -16 -29 6 -37
15 -13 16 18 0 18 1 -1 9 -18 8 -17 9 8 9 20 1 27 -4 27 -18z m226 -11 c11 0
12 -4 4 -19 -5 -11 -10 -31 -10 -45 0 -30 -7 -32 -38 -10 -27 19 -28 41 -2 49
13 4 20 16 21 33 1 17 3 21 6 10 2 -10 11 -18 19 -18z m-663 -22 c-7 -51 -22
-76 -34 -56 -8 12 -10 9 -25 -41 -4 -11 -9 -10 -25 5 -18 16 -19 19 -5 22 11
2 16 14 16 35 0 30 1 30 16 11 14 -18 15 -16 9 21 -5 34 -4 38 8 23 12 -15 14
-15 25 3 18 28 21 24 15 -23z m1284 0 c-3 -8 -6 -5 -6 6 -1 11 2 17 5 13 3 -3
4 -12 1 -19z m68 -19 c10 -30 -4 -43 -26 -23 -24 22 -24 39 1 41 11 1 22 -6
25 -18z m-1087 -45 c1 -30 -2 -34 -24 -34 -17 0 -23 -4 -18 -12 5 -8 2 -9 -9
-5 -9 3 -16 3 -14 -2 1 -4 -8 -21 -20 -37 -12 -16 -22 -33 -22 -38 1 -5 -5
-13 -13 -17 -11 -7 -10 -11 2 -20 8 -6 11 -12 5 -15 -28 -12 -36 -26 -52 -88
-12 -51 -14 -73 -6 -86 9 -13 6 -22 -12 -42 -20 -22 -23 -33 -20 -89 2 -35 1
-50 -2 -34 -2 17 -9 35 -15 42 -5 7 -6 18 -2 24 4 8 3 9 -4 5 -16 -10 -15 12
1 29 35 37 46 56 40 71 -6 15 -7 15 -20 -1 -7 -10 -14 -17 -16 -14 -8 9 14 69
24 66 10 -2 22 32 49 132 4 18 23 51 40 73 24 29 29 43 21 51 -15 15 -14 27 3
27 8 0 18 10 22 23 7 21 7 21 15 2 6 -16 8 -14 8 13 1 29 3 31 19 21 12 -7 19
-25 20 -45z m307 35 c0 -8 -10 -15 -23 -17 -21 -3 -22 -1 -12 18 12 23 35 22
35 -1z m-175 7 c0 -2 -8 -10 -17 -17 -16 -13 -17 -12 -4 4 13 16 21 21 21 13z
m40 -17 c0 -5 -4 -9 -8 -9 -5 0 -9 7 -9 15 0 8 4 12 9 9 4 -3 8 -9 8 -15z
m-619 -22 c-10 -9 -11 -8 -5 6 3 10 9 15 12 12 3 -3 0 -11 -7 -18z m699 18 c0
-2 -10 -9 -22 -15 -22 -11 -22 -10 -4 4 21 17 26 19 26 11z m801 -12 c0 -5 2
-15 4 -25 2 -9 -5 -18 -14 -21 -14 -3 -16 1 -13 24 4 26 21 41 23 22z m-803
-29 c-7 -15 -14 -21 -16 -15 -2 7 2 18 8 26 18 22 21 18 8 -11z m-1118 -34
c-6 -22 -6 -38 0 -44 14 -14 12 -26 -4 -26 -20 0 -24 40 -9 79 18 42 26 36 13
-9z m117 33 c-4 -3 0 -11 8 -17 17 -13 11 -81 -10 -109 -13 -18 -15 -17 -55 3
-35 18 -39 24 -29 36 7 8 19 12 27 9 20 -7 37 5 21 16 -10 6 -7 9 10 9 23 0
23 1 7 19 -20 22 -14 41 11 41 9 0 13 -3 10 -7z m313 -14 c-7 -11 -14 -18 -17
-15 -3 3 0 12 7 21 18 21 23 19 10 -6z m317 15 c-3 -3 -12 -4 -19 -1 -8 3 -5
6 6 6 11 1 17 -2 13 -5z m1333 -8 c0 -10 -7 -12 -22 -8 -21 5 -21 6 -2 13 10
4 20 8 22 8 1 1 2 -5 2 -13z m-1370 -37 c-7 -11 -14 -19 -16 -16 -7 7 7 37 17
37 6 0 5 -9 -1 -21z m487 -20 c2 -21 1 -21 -12 -3 -14 18 -14 18 -15 -3 0 -21
-5 -23 -46 -23 -38 0 -45 3 -42 18 2 11 19 21 48 28 54 13 65 10 67 -17z
m-124 -11 c-4 -23 -11 -28 -33 -28 -16 0 -35 -3 -44 -6 -18 -7 -21 12 -7 35 7
10 76 32 88 27 1 -1 -1 -13 -4 -28z m-727 12 c8 0 14 -5 14 -11 0 -5 -5 -7
-12 -3 -7 5 -8 3 -3 -6 6 -10 11 -9 22 5 9 14 13 15 13 4 0 -8 3 -10 8 -4 9
13 62 18 62 6 0 -5 -5 -13 -10 -16 -6 -4 -7 -11 -4 -17 5 -7 -2 -9 -22 -4 -16
4 -48 6 -71 6 -23 0 -44 4 -48 9 -3 6 0 8 8 5 8 -3 18 0 23 7 4 7 3 10 -3 6
-6 -4 -14 0 -17 9 -5 12 -2 15 10 10 8 -3 22 -6 30 -6z m1062 -47 c28 -41 30
-48 16 -56 -11 -6 -19 -5 -23 2 -5 7 -16 9 -27 4 -17 -6 -17 -5 -5 10 7 9 18
14 23 11 6 -4 6 2 -1 13 -6 11 -7 24 -3 28 4 4 -8 0 -25 -9 -18 -9 -33 -22
-33 -29 0 -8 -4 -7 -10 3 -14 22 -12 27 10 33 12 3 20 14 20 26 0 30 20 17 58
-36z m-768 37 c0 -5 -5 -10 -11 -10 -5 0 -7 5 -4 10 3 6 8 10 11 10 2 0 4 -4
4 -10z m-383 -22 c-3 -8 -6 -5 -6 6 -1 11 2 17 5 13 3 -3 4 -12 1 -19z m1574
4 c-5 -10 -18 -25 -27 -33 -16 -12 -17 -12 -9 1 10 18 37 50 42 50 2 0 -1 -8
-6 -18z m-1130 -31 c-13 -23 -45 -21 -49 2 -2 11 3 17 17 17 11 0 23 5 27 12
13 20 17 -8 5 -31z m-708 -6 c-3 -9 -8 -14 -10 -11 -3 3 -2 9 2 15 9 16 15 13
8 -4z m2677 5 c0 -5 -5 -10 -11 -10 -5 0 -7 5 -4 10 3 6 8 10 11 10 2 0 4 -4
4 -10z m-985 -9 c6 -11 -6 -20 -35 -26 -11 -2 -20 1 -20 7 0 5 7 7 16 4 12 -4
15 -2 10 9 -6 16 19 21 29 6z m1220 -1 c-3 -5 -10 -10 -16 -10 -5 0 -9 5 -9
10 0 6 7 10 16 10 8 0 12 -4 9 -10z m-1763 -135 c2 -91 0 -125 -9 -125 -12 0
-19 48 -26 178 -4 64 -2 72 14 72 16 0 18 -12 21 -125z m597 123 c-2 -2 -16
-14 -31 -27 -16 -14 -28 -22 -28 -18 0 10 42 47 54 47 5 0 7 -1 5 -2z m181
-13 c7 -8 9 -15 4 -15 -5 0 -3 -4 4 -8 17 -11 6 -39 -19 -45 -14 -4 -19 0 -19
14 0 10 5 19 11 19 5 0 7 5 3 11 -9 15 -23 -8 -25 -41 -1 -16 -4 -11 -8 15 -5
29 -3 43 8 53 19 16 26 15 41 -3z m-840 -21 c11 -27 2 -74 -26 -147 -19 -50
-18 -55 11 -49 14 2 25 0 25 -6 0 -12 -61 -25 -72 -14 -4 4 1 35 11 68 28 86
35 130 21 139 -7 4 -14 -1 -17 -14 -3 -12 -11 -21 -18 -21 -14 0 -9 36 8 58
16 21 47 14 57 -14z m-1190 -2 c0 -10 -7 -19 -15 -19 -18 0 -19 9 -3 25 16 16
18 15 18 -6z m78 5 c7 0 11 -5 9 -11 -5 -16 -67 -17 -67 -2 0 19 12 27 29 20
9 -3 22 -7 29 -7z m420 -21 c7 -57 -49 -216 -75 -216 -16 0 -16 6 6 55 17 39
17 40 -3 50 -17 9 -21 20 -20 53 1 63 21 94 58 90 26 -2 32 -8 34 -32z m1450
28 c16 -5 22 -14 22 -36 0 -18 -4 -27 -11 -23 -6 4 -8 13 -5 21 3 7 1 16 -4
19 -6 4 -10 -6 -10 -22 0 -22 -2 -25 -10 -13 -9 13 -10 13 -11 0 -1 -8 -1 -21
0 -27 1 -7 -3 -13 -9 -13 -7 0 -9 13 -4 37 l7 36 -34 -6 -34 -7 24 20 c24 21
41 24 79 14z m-1821 -16 c8 20 43 15 43 -7 0 -15 -5 -17 -32 -12 -17 4 -33 13
-36 21 -3 13 -2 13 8 0 9 -11 13 -12 17 -2z m646 -25 c-7 -49 -16 -58 -37 -37
-24 24 -17 59 12 58 12 0 22 3 22 8 0 4 2 8 4 8 3 0 2 -17 -1 -37z m203 2 c12
-48 -44 -77 -66 -35 -15 28 4 60 35 60 18 0 26 -7 31 -25z m1168 -19 c6 -26 5
-27 -9 -13 -8 9 -15 26 -15 38 0 29 15 14 24 -25z m-2248 -60 c-16 -39 -27
-44 -46 -21 -7 8 -22 15 -33 15 -18 0 -16 5 17 39 37 38 39 39 58 21 18 -16
18 -20 4 -54z m350 38 c-1 -18 -47 -76 -54 -69 -5 5 45 85 52 85 2 0 3 -7 2
-16z m-145 -28 c9 -19 8 -31 -5 -56 -8 -18 -13 -37 -9 -43 3 -5 6 -26 5 -46
-1 -36 -29 -71 -57 -71 -40 0 -60 76 -31 115 10 14 10 25 3 46 -8 21 -7 32 6
53 24 35 73 36 88 2z m1426 -29 c-1 -5 -23 -24 -49 -43 l-46 -34 0 40 c-1 45
12 53 25 15 l8 -26 30 31 c16 16 23 30 17 30 -7 0 -12 8 -12 18 1 15 2 15 15
-3 9 -10 14 -23 12 -28z m147 25 c3 -5 -1 -9 -9 -9 -8 0 -12 4 -9 9 3 4 7 8 9
8 2 0 6 -4 9 -8z m-631 -23 c-3 -12 0 -25 7 -29 8 -5 9 -10 1 -14 -12 -8 -26
37 -16 53 10 17 14 13 8 -10z m926 -36 l-1 -48 -9 35 c-4 19 -6 41 -4 48 9 25
15 10 14 -35z m72 20 c5 -16 16 -32 22 -38 7 -5 26 -28 42 -50 35 -50 131
-142 166 -160 31 -17 44 -44 29 -59 -8 -8 -9 -6 -5 6 4 11 0 18 -13 22 -11 4
-37 23 -59 44 -22 20 -60 56 -86 80 -26 23 -47 46 -47 51 0 5 -11 18 -25 29
-13 11 -21 22 -18 26 3 3 0 6 -7 6 -7 0 -11 3 -7 6 3 3 -5 16 -19 29 -29 27
-30 35 -4 35 13 0 24 -10 31 -27z m109 -24 c0 -4 -5 -11 -12 -15 -7 -5 -8 -3
-3 5 6 10 3 11 -12 2 -11 -6 -23 -7 -27 -4 -10 10 -7 38 7 52 10 10 15 8 30
-10 9 -11 17 -25 17 -30z m-2357 6 c-9 -19 -19 -33 -21 -30 -7 7 19 65 29 65
5 0 1 -16 -8 -35z m1828 21 c5 3 9 -7 9 -21 0 -37 -24 -27 -27 11 -1 16 0 23
3 16 3 -6 10 -10 15 -6z m-1781 -26 c-18 -11 -22 -7 -14 14 5 13 10 14 18 6 8
-8 7 -13 -4 -20z m930 -14 c0 -3 -4 -8 -10 -11 -5 -3 -10 -1 -10 4 0 6 5 11
10 11 6 0 10 -2 10 -4z m1375 -36 c8 -16 15 -37 15 -46 0 -14 -3 -14 -15 -4
-9 7 -13 21 -10 31 5 14 1 19 -14 19 -14 0 -19 5 -15 15 9 23 22 18 39 -15z
m-2313 -20 c4 -46 -6 -41 -15 8 -4 17 -3 32 2 32 5 0 11 -18 13 -40z m498 20
c0 -5 -7 -7 -15 -4 -8 4 -15 8 -15 10 0 2 7 4 15 4 8 0 15 -4 15 -10z m2678
-8 c2 -8 -9 -12 -32 -12 -20 0 -39 0 -43 -1 -5 0 -9 7 -11 15 -3 13 5 15 39
13 24 -2 44 -8 47 -15z m-1660 -41 c-15 -5 -21 7 -13 26 7 17 8 17 15 -2 4
-11 3 -22 -2 -24z m293 30 c-13 -8 -13 -12 -1 -28 13 -17 13 -17 -4 -1 -19 16
-15 38 7 38 8 0 7 -4 -2 -9z m-541 -23 c0 -7 -5 -20 -10 -28 -8 -12 -10 -9
-10 13 0 15 5 27 10 27 6 0 10 -6 10 -12z m1635 2 c4 -6 10 -8 15 -5 4 3 13
-2 20 -9 9 -12 7 -17 -9 -25 -11 -6 -26 -11 -34 -11 -20 0 -40 27 -33 45 6 17
32 20 41 5z m-1525 -10 c0 -5 -5 -10 -11 -10 -5 0 -7 5 -4 10 3 6 8 10 11 10
2 0 4 -4 4 -10z m50 0 c0 -5 -9 -14 -20 -20 -17 -9 -20 -8 -20 10 0 13 7 20
20 20 11 0 20 -4 20 -10z m-866 -14 c-8 -20 -44 -28 -44 -9 0 8 4 12 8 9 4 -2
14 -1 22 5 20 12 20 11 14 -5z m53 -8 c-3 -8 -6 -5 -6 6 -1 11 2 17 5 13 3 -3
4 -12 1 -19z m54 7 c0 -5 -9 -11 -21 -13 -20 -3 -27 8 -13 22 10 9 34 3 34 -9z
m659 5 c0 -5 -14 -10 -31 -10 -17 0 -28 4 -24 10 3 6 17 10 31 10 13 0 24 -4
24 -10z m-730 -4 c0 -3 -4 -8 -10 -11 -5 -3 -10 -1 -10 4 0 6 5 11 10 11 6 0
10 -2 10 -4z m1020 -14 c0 -21 -26 -60 -34 -51 -7 7 16 69 26 69 4 0 8 -8 8
-18z m-120 3 c0 -2 -10 -9 -22 -15 -22 -11 -22 -10 -4 4 21 17 26 19 26 11z
m377 -9 c5 -4 4 -6 -2 -5 -5 2 -20 -2 -32 -9 -17 -9 -22 -9 -27 4 -3 8 -2 12
4 9 6 -3 10 -1 10 4 0 12 35 9 47 -3z m-364 -27 c-4 -12 0 -25 8 -30 11 -7 10
-9 -3 -9 -13 0 -18 8 -18 30 0 17 4 30 9 30 5 0 7 -9 4 -21z m894 -1 c-3 -8
-6 -5 -6 6 -1 11 2 17 5 13 3 -3 4 -12 1 -19z m475 -20 c-15 -15 -26 -4 -18
18 5 13 9 15 18 6 9 -9 9 -15 0 -24z m-1427 3 c3 -5 2 -12 -3 -15 -5 -3 -9 1
-9 9 0 17 3 19 12 6z m1825 0 c0 -6 -4 -13 -10 -16 -5 -3 -10 1 -10 9 0 9 5
16 10 16 6 0 10 -4 10 -9z m-3100 -13 c0 -6 -3 -8 -7 -5 -3 4 -12 2 -20 -4
-10 -9 -13 -8 -13 3 0 7 9 14 20 15 11 1 20 -3 20 -9z m53 -3 c-3 -9 -8 -14
-10 -11 -3 3 -2 9 2 15 9 16 15 13 8 -4z m2077 -6 c0 -6 -4 -7 -10 -4 -5 3
-10 11 -10 16 0 6 5 7 10 4 6 -3 10 -11 10 -16z m-2020 1 c0 -5 -9 -10 -20
-10 -11 0 -20 5 -20 10 0 6 9 10 20 10 11 0 20 -4 20 -10z m2060 -25 c0 -8 9
-23 20 -32 11 -10 20 -29 19 -43 0 -25 0 -25 -9 -2 -14 33 -19 27 -10 -13 4
-19 4 -33 0 -30 -5 3 -11 -3 -13 -12 -3 -12 -5 -8 -6 9 0 14 -7 29 -13 31 -8
3 -6 6 4 6 18 1 19 15 5 54 -15 38 -16 47 -7 47 6 0 10 -7 10 -15z m-710 -16
c0 -15 -30 -23 -42 -11 -6 6 -7 15 -4 20 7 12 46 4 46 -9z m876 -6 c-10 -10
-19 5 -10 18 6 11 8 11 12 0 2 -7 1 -15 -2 -18z m822 -12 c3 -8 -1 -12 -9 -9
-7 2 -15 10 -17 17 -3 8 1 12 9 9 7 -2 15 -10 17 -17z m-2356 -129 c-16 -4
-43 29 -35 41 3 5 5 28 5 50 0 42 0 42 22 -23 17 -51 18 -66 8 -68z m1168 44
c0 -3 -4 -8 -10 -11 -5 -3 -10 -1 -10 4 0 6 5 11 10 11 6 0 10 -2 10 -4z
m-1080 -56 c0 -9 -9 -25 -20 -35 -15 -14 -17 -20 -8 -26 18 -11 7 -18 -16 -10
-17 7 -16 9 8 38 29 35 33 48 11 39 -15 -5 -21 5 -9 17 11 10 34 -5 34 -23z
m40 -2 c0 -57 -35 -107 -48 -68 -3 9 1 11 12 7 10 -4 16 -1 16 7 0 8 3 22 7
32 4 12 3 15 -5 10 -13 -8 -17 6 -5 17 10 11 23 8 23 -5z m1880 -48 c0 -5 -4
-10 -10 -10 -5 0 -10 5 -10 10 0 6 5 10 10 10 6 0 10 -4 10 -10z"/>
<path d="M1857 823 c-10 -9 -9 -23 2 -23 5 0 11 7 15 15 5 15 -5 20 -17 8z"/>
<path d="M2490 921 c0 -5 5 -13 10 -16 6 -3 10 -2 10 4 0 5 -4 13 -10 16 -5 3
-10 2 -10 -4z"/>
<path d="M666 774 c-8 -21 -8 -34 2 -34 4 0 9 11 10 25 2 28 -3 32 -12 9z"/>
<path d="M976 764 c-5 -14 -4 -15 9 -4 17 14 19 20 6 20 -5 0 -12 -7 -15 -16z"/>
<path d="M896 662 c-3 -5 -8 -28 -12 -50 -5 -34 -4 -42 9 -42 15 0 27 28 27
67 0 23 -15 39 -24 25z"/>
<path d="M492 559 c-11 -28 -5 -52 12 -46 15 5 20 47 7 60 -7 7 -13 3 -19 -14z"/>
<path d="M474 445 c-8 -31 1 -55 20 -55 14 0 27 45 19 67 -9 22 -32 15 -39
-12z"/>
<path d="M2557 543 c-4 -3 -7 -13 -7 -22 1 -13 3 -13 11 2 11 19 8 33 -4 20z"/>
<path d="M685 160 c3 -5 8 -10 11 -10 2 0 4 5 4 10 0 6 -5 10 -11 10 -5 0 -7
-4 -4 -10z"/>
</g>
</svg>
