<?xml version="1.0" standalone="no"?>
<!DOCTYPE svg PUBLIC "-//W3C//DTD SVG 20010904//EN"
 "http://www.w3.org/TR/2001/REC-SVG-20010904/DTD/svg10.dtd">
<svg version="1.0" xmlns="http://www.w3.org/2000/svg"
 width="389.000000pt" height="129.000000pt" viewBox="0 0 389.000000 129.000000"
 preserveAspectRatio="xMidYMid meet">

<g transform="translate(0.000000,129.000000) scale(0.100000,-0.100000)"
fill="#000000" stroke="none">
<path d="M0 1085 c0 -9 6 -12 15 -9 8 4 12 10 9 15 -8 14 -24 10 -24 -6z"/>
<path d="M0 601 l0 -391 139 0 c102 0 141 -3 144 -12 3 -7 6 -3 6 10 1 14 5
20 12 17 6 -4 8 -14 5 -22 -4 -9 -2 -13 6 -9 7 3 21 9 31 12 9 4 17 11 17 18
0 6 4 4 10 -4 8 -12 11 -12 27 2 13 12 23 14 33 8 13 -8 12 -10 -2 -10 -39 0
-23 -16 18 -18 25 -1 44 3 44 9 0 6 -4 7 -10 4 -6 -3 -10 -1 -10 5 0 7 6 10
14 7 7 -3 19 0 26 6 10 10 10 7 1 -11 -11 -21 -10 -22 31 -22 34 0 46 5 57 22
l14 22 8 -23 c5 -12 6 -28 2 -34 -4 -7 5 -4 20 6 22 14 31 15 48 6 17 -9 23
-8 30 2 5 8 9 10 10 4 2 -14 7 -134 8 -172 0 -34 20 -47 22 -15 0 15 1 14 8
-2 7 -18 8 -18 14 5 9 33 9 91 0 86 -5 -3 -9 17 -10 44 -2 38 2 53 18 68 12
11 27 17 34 15 7 -3 19 3 26 14 13 18 54 28 43 10 -8 -12 10 -10 23 3 9 9 10
6 6 -10 -5 -20 -7 -21 -29 -7 -21 15 -23 14 -21 -7 1 -12 8 -27 17 -34 20 -16
57 -16 64 0 4 6 4 2 2 -11 -3 -13 3 -27 13 -35 9 -6 21 -19 26 -27 8 -13 7
-13 -9 -1 -16 13 -17 11 -16 -35 1 -27 -1 -60 -5 -73 -6 -17 -5 -22 3 -17 7 4
12 16 12 26 0 10 4 22 10 25 6 4 10 -7 10 -26 0 -21 4 -29 9 -24 6 6 11 47 12
93 2 46 6 85 11 88 4 3 8 10 8 15 0 6 -6 7 -12 3 -10 -6 -10 -5 -1 7 6 8 11
18 11 22 0 5 4 12 8 15 4 4 4 1 0 -5 -4 -7 -2 -13 3 -13 6 0 11 4 11 10 0 5 7
7 15 4 8 -4 22 -1 30 6 16 14 35 5 35 -16 0 -8 9 -14 21 -14 19 0 20 -2 8 -17
-12 -15 -12 -16 4 -10 9 3 17 2 17 -3 0 -6 16 -10 36 -10 26 0 33 -3 27 -12
-11 -18 -10 -102 2 -110 6 -4 18 -8 28 -8 14 0 17 10 17 66 0 43 -5 70 -14 80
-9 9 -17 10 -21 4 -4 -6 -15 -4 -31 6 -22 15 -24 15 -24 -2 0 -13 -3 -15 -11
-7 -9 9 -8 16 5 28 9 9 16 12 16 7 0 -18 44 -22 57 -6 14 19 83 30 83 14 0 -6
-4 -9 -9 -5 -15 9 -20 -9 -6 -22 10 -9 17 -8 30 7 21 24 39 16 25 -10 -14 -26
-13 -30 8 -30 15 0 15 2 2 11 -12 8 -10 9 7 4 16 -4 23 -1 28 15 3 11 12 20
18 20 7 0 6 4 -3 10 -8 5 -10 10 -5 10 20 0 32 -16 31 -39 0 -13 5 -26 13 -29
8 -2 11 0 8 6 -4 5 2 12 13 15 11 3 18 1 14 -4 -8 -14 12 -11 25 4 6 8 7 18 3
22 -4 5 -1 5 6 1 8 -5 23 0 37 14 26 24 46 10 23 -17 -12 -14 -9 -14 20 1 17
9 32 12 32 7 0 -6 -9 -15 -20 -21 -29 -16 -24 -30 10 -30 17 0 30 5 30 11 0 8
4 8 13 2 14 -12 47 -13 47 -2 0 5 8 6 18 3 9 -4 4 3 -13 15 -16 11 -41 22 -55
22 -23 2 -23 2 -3 6 12 2 31 -1 42 -7 12 -6 21 -7 21 -1 0 5 8 12 18 16 14 5
15 4 5 -6 -18 -18 -16 -32 3 -25 8 3 12 2 9 -4 -3 -6 0 -10 7 -10 16 0 49 36
40 44 -3 3 10 4 29 2 19 -2 42 -4 53 -5 16 -1 17 -3 5 -18 -12 -15 -12 -16 4
-10 22 8 29 -9 19 -47 -12 -44 -32 -45 -32 -1 0 40 -14 40 -24 -1 -5 -18 -3
-30 6 -35 10 -7 9 -9 -4 -9 -10 0 -18 6 -18 13 -1 24 -18 -18 -22 -53 -2 -28
0 -35 15 -34 10 1 19 -7 23 -22 7 -29 34 -32 34 -4 0 11 5 20 10 20 6 0 10 -9
10 -20 0 -13 7 -20 20 -20 11 0 20 5 20 10 0 6 -4 10 -9 10 -5 0 -7 9 -4 20 4
15 11 18 29 14 17 -4 26 -1 31 12 4 10 2 19 -5 22 -7 2 -12 8 -12 13 0 6 5 7
10 4 5 -3 10 -1 10 5 0 7 -7 10 -15 7 -16 -7 -28 7 -32 37 -2 11 -9 26 -16 34
-9 12 -9 16 1 19 6 3 12 16 12 29 0 17 6 24 20 24 13 0 20 -7 20 -20 0 -11 9
-29 20 -40 19 -19 19 -19 32 15 16 47 45 55 74 21 28 -31 30 -32 37 -6 3 11
13 20 22 20 9 0 13 -4 10 -10 -3 -5 -1 -10 6 -10 7 0 10 -3 7 -6 -6 -5 38 -54
47 -54 3 0 5 5 5 11 0 7 8 18 18 25 14 11 15 13 1 14 -8 0 -20 -5 -26 -11 -6
-6 -13 -7 -16 -2 -3 5 17 16 44 25 44 13 49 13 44 0 -5 -14 32 -49 48 -44 4 1
7 -2 7 -8 0 -5 6 -10 14 -10 17 0 31 33 16 38 -6 2 -16 9 -23 16 -7 7 -19 11
-27 9 -12 -3 -11 -2 1 6 17 11 99 -14 99 -31 0 -4 7 -8 15 -8 7 0 19 -8 24
-17 8 -14 10 -15 11 -3 0 13 1 13 10 0 8 -12 14 -13 41 -3 34 13 50 10 45 -10
-1 -7 -1 -9 1 -4 3 4 16 7 29 7 14 0 23 4 19 10 -3 5 -12 7 -20 3 -8 -3 -15 0
-15 7 0 12 15 11 54 -5 16 -7 17 -5 11 15 -6 18 -4 22 8 17 8 -3 24 1 35 9 15
10 23 11 28 3 4 -7 3 -9 -3 -6 -6 4 -17 -1 -24 -10 -12 -15 -12 -16 3 -10 12
4 19 0 23 -14 7 -22 30 -25 38 -5 4 9 -1 17 -11 19 -15 4 -15 5 1 6 10 0 16 4
14 8 -3 5 8 9 24 10 16 1 29 -2 29 -7 0 -6 -10 -10 -23 -10 -16 0 -23 -6 -23
-20 0 -11 4 -20 8 -20 4 0 8 6 8 13 0 8 3 7 10 -3 8 -12 12 -12 36 0 21 12 28
12 31 3 3 -7 12 -13 21 -13 13 0 12 3 -4 19 -10 10 -22 17 -26 14 -4 -2 -5 3
-2 11 3 9 11 13 17 9 5 -3 16 2 24 12 7 11 13 17 14 14 0 -2 2 -12 4 -21 2
-10 -1 -18 -6 -18 -5 0 -9 -5 -9 -11 0 -5 5 -7 11 -4 6 4 16 -1 24 -11 17 -24
33 -9 17 16 -16 25 -15 30 3 30 10 0 15 -10 15 -27 0 -26 3 -28 51 -31 29 -2
57 2 65 9 8 6 14 8 14 3 0 -5 11 -10 25 -10 23 -2 30 6 26 29 -1 4 5 15 14 23
8 9 15 11 15 6 0 -5 -3 -12 -7 -16 -4 -3 -7 -15 -8 -26 -2 -25 36 -28 59 -4
12 12 16 12 16 2 0 -10 19 -13 78 -13 77 0 77 0 80 27 4 35 22 37 22 3 0 -19
5 -25 23 -26 12 0 69 -3 126 -5 79 -4 106 -2 112 8 7 10 9 10 9 1 0 -7 5 -13
10 -13 6 0 11 35 12 83 l2 82 5 -80 6 -81 48 -3 47 -3 0 147 c0 114 -3 146
-13 142 -6 -2 -18 2 -25 9 -11 12 -8 14 13 14 14 0 25 5 25 10 0 6 -5 10 -12
10 -9 0 -9 3 0 12 9 9 12 68 12 206 l0 194 -32 -5 c-18 -3 -105 -11 -193 -17
-227 -16 -253 -20 -232 -32 21 -11 14 -26 -20 -39 -36 -13 -21 -23 33 -20 42
1 46 -1 41 -19 -3 -13 0 -20 9 -20 8 0 14 6 14 13 0 27 16 38 41 28 l24 -10
-27 0 c-21 -1 -28 -6 -28 -20 0 -23 -14 -29 -60 -25 -35 3 -35 3 -5 -5 17 -5
26 -9 21 -10 -5 0 -3 -8 4 -16 10 -13 9 -15 -8 -15 -12 0 -24 4 -27 10 -3 5
-16 10 -28 11 -12 0 -16 3 -9 6 21 8 13 21 -10 15 -17 -4 -20 -2 -15 11 7 18
-14 29 -34 16 -12 -7 -11 -9 2 -9 9 0 19 -9 22 -20 4 -17 2 -18 -15 -9 -11 6
-22 8 -26 5 -3 -3 0 -6 7 -6 7 0 9 -4 6 -10 -6 -10 6 -12 68 -12 15 -1 27 -4
27 -8 0 -6 44 -30 56 -30 3 0 2 4 -1 10 -3 6 1 7 9 4 20 -8 13 -20 -14 -27
-11 -3 -18 -1 -14 4 4 8 -17 14 -38 10 -5 0 -8 4 -8 9 0 6 -22 10 -50 10 -38
0 -50 4 -50 15 0 11 -11 15 -47 14 -32 -2 -38 -3 -18 -6 53 -7 63 -16 25 -23
-32 -7 -31 -7 18 -9 67 -1 69 -16 2 -16 -34 0 -54 5 -60 15 -11 18 -23 8 -14
-13 3 -10 21 -17 47 -20 23 -2 -10 -4 -74 -5 -67 -1 -120 -7 -126 -13 -8 -8
-13 -8 -17 0 -8 13 -142 15 -150 2 -3 -5 -30 -3 -61 4 -30 7 -55 10 -55 7 0
-4 -26 -5 -57 -3 -162 10 -222 8 -227 -6 -5 -12 -11 -11 -32 6 -18 14 -41 21
-70 21 -26 0 -44 5 -44 11 0 7 9 9 21 6 16 -4 19 -3 11 5 -9 9 -18 8 -36 -1
-17 -10 -29 -10 -44 -2 -11 6 -31 10 -44 10 -19 -1 -18 -2 6 -8 38 -8 47 -31
11 -31 -23 0 -69 29 -48 31 13 1 -31 18 -49 18 -10 1 -18 -4 -18 -10 0 -6 8
-8 19 -4 11 3 22 1 26 -5 4 -6 -18 -10 -64 -10 -38 0 -76 -3 -84 -6 -8 -3 -24
5 -36 17 -16 17 -21 19 -21 7 0 -21 -116 -19 -131 2 -8 11 -9 10 -4 -7 5 -19
2 -23 -14 -23 -12 0 -21 4 -21 8 0 12 -164 10 -172 -2 -5 -7 -14 -6 -30 2 -27
13 -178 22 -178 10 0 -13 -27 -9 -39 6 -9 11 -9 15 1 19 9 4 7 6 -4 6 -9 1
-18 -4 -20 -10 -2 -6 -31 -13 -63 -16 -33 -2 -72 -8 -87 -13 -15 -5 -28 -5
-30 0 -4 10 -136 15 -158 6 -8 -3 -35 -2 -60 2 -25 4 -72 4 -105 0 -39 -6 -61
-5 -63 2 -2 5 -12 10 -23 10 -10 0 -19 5 -19 11 0 7 10 9 28 5 24 -6 25 -5 10
7 -10 8 -15 17 -11 20 3 4 12 2 19 -4 11 -9 15 -7 20 5 4 9 4 20 0 23 -3 4 -6
-2 -6 -12 0 -17 -1 -17 -18 -1 -18 15 -19 15 -30 -9 -6 -14 -16 -25 -22 -25
-6 0 -9 -4 -6 -9 3 -5 -12 -11 -35 -13 -22 -2 -43 0 -45 4 -3 4 9 8 26 8 38 0
69 24 44 34 -22 9 -24 8 -18 -8 5 -14 -11 -18 -121 -30 -40 -4 -43 -3 -15 3
24 6 28 9 13 10 -16 1 -21 6 -17 16 8 20 -51 20 -86 0 -14 -8 -34 -14 -45 -14
-11 0 -14 3 -8 6 20 7 15 21 -10 29 -21 7 -21 7 -2 14 19 7 19 8 -5 18 -23 9
-24 11 -6 18 13 5 21 3 24 -4 2 -7 9 -9 15 -5 6 4 8 0 4 -10 -4 -10 -2 -17 4
-17 6 0 9 -7 6 -14 -4 -10 -1 -13 8 -9 9 3 13 14 11 27 -2 11 -1 15 1 8 6 -16
25 -11 31 8 3 8 0 10 -8 5 -9 -6 -9 -3 0 15 6 12 9 24 6 28 -3 3 -6 0 -6 -6 0
-6 -7 -9 -17 -5 -11 4 -14 3 -9 -5 5 -9 -6 -11 -44 -8 -48 4 -84 16 -47 16 15
0 19 8 19 30 0 3 -3 15 -7 28 -4 13 -2 22 4 22 6 0 11 -9 11 -19 0 -20 19 -31
53 -31 20 1 19 2 -6 16 -15 8 -32 26 -37 40 -5 13 -14 24 -19 24 -15 0 -30
-63 -17 -72 7 -4 5 -9 -4 -12 -13 -4 -33 -4 -100 2 -11 1 -20 7 -20 12 0 7 18
9 48 5 33 -3 42 -2 32 5 -10 6 -11 10 -2 10 6 0 12 11 12 24 0 20 -6 24 -42
29 -24 4 -83 13 -133 22 -50 8 -108 17 -130 19 -22 2 -52 7 -67 11 l-28 7 0
-391z m345 129 c13 -6 15 -9 5 -9 -8 0 -22 4 -30 9 -18 12 -2 12 25 0z m229
-15 c-10 -8 -25 -15 -33 -15 -11 0 -9 4 5 15 10 8 25 15 33 15 11 0 9 -4 -5
-15z m3019 -5 c-14 -6 -32 -6 -45 0 -19 7 -15 9 22 9 37 0 41 -2 23 -9z m-13
-30 c0 -5 -2 -10 -4 -10 -3 0 -8 5 -11 10 -3 6 -1 10 4 10 6 0 11 -4 11 -10z
m-30 -10 c0 -5 -2 -10 -4 -10 -3 0 -8 5 -11 10 -3 6 -1 10 4 10 6 0 11 -4 11
-10z m-2608 -42 c20 -16 7 -58 -17 -58 -8 0 -15 -6 -16 -12 -3 -52 -30 -98
-59 -98 -5 0 -10 -5 -10 -11 0 -8 -20 -10 -66 -6 -71 6 -87 13 -60 23 11 4 15
14 11 28 -2 11 -2 15 1 8 4 -9 15 -5 37 14 18 15 32 30 32 35 0 4 4 11 9 16 5
5 6 2 1 -6 -7 -11 -2 -13 25 -8 18 4 41 7 51 7 11 0 19 7 19 15 0 9 6 12 16 8
14 -5 15 -3 5 15 -7 12 -17 22 -24 22 -7 0 -6 4 3 10 20 13 23 12 42 -2z
m1728 -3 c0 -2 -9 -3 -19 -2 -11 0 -18 5 -15 9 4 6 34 0 34 -7z m-1284 -28
c-1 -27 -6 -32 -26 -33 -14 -1 -31 7 -38 18 -10 14 -17 16 -26 9 -7 -6 -16 -8
-19 -4 -4 3 -7 -1 -7 -10 0 -16 5 -18 74 -21 27 -2 30 -20 12 -57 -9 -17 -13
-35 -11 -40 7 -10 -32 -32 -44 -24 -5 3 -12 -1 -15 -7 -3 -7 -4 1 -1 17 7 41
9 48 18 63 5 7 2 15 -8 18 -18 7 -55 -22 -55 -43 0 -7 -5 -13 -12 -13 -6 0 -9
-3 -5 -6 11 -12 -17 -30 -40 -26 -26 5 -30 24 -8 42 8 7 15 26 15 42 0 29 2
30 30 25 18 -4 30 -2 30 4 0 6 -4 8 -9 5 -25 -16 -13 47 12 65 5 3 37 6 72 7
l63 0 -2 -31z m430 6 c18 -24 18 -58 -1 -77 -8 -8 -15 -19 -15 -25 0 -6 7 -8
15 -5 11 5 15 -1 16 -22 1 -16 1 -33 0 -37 -1 -5 3 -6 9 -2 5 3 15 3 21 -1 18
-11 -12 -24 -31 -14 -9 5 -25 7 -36 4 -14 -4 -22 3 -32 25 -8 17 -11 35 -7 41
3 5 1 10 -5 10 -6 0 -8 5 -5 10 3 6 1 10 -4 10 -6 0 -11 -4 -11 -10 0 -5 -8
-10 -17 -10 -15 0 -16 -2 -3 -10 8 -5 11 -10 5 -11 -5 0 -2 -4 9 -8 17 -7 17
-8 2 -24 -15 -14 -15 -17 -2 -17 8 0 17 -4 20 -8 7 -11 -26 -12 -40 0 -6 4
-19 6 -28 2 -10 -4 -16 -1 -17 7 -1 8 -2 21 -3 29 0 8 3 18 8 21 7 6 13 36 19
109 2 20 9 26 37 30 53 8 80 4 96 -17z m-963 -13 c-19 -19 -33 -17 -33 5 0 7
8 15 18 18 28 6 35 -4 15 -23z m1329 6 c5 -7 8 -5 8 6 0 13 8 16 43 13 57 -3
57 -3 57 -16 0 -7 -15 -10 -39 -7 -37 3 -61 -9 -61 -32 0 -5 -11 -10 -24 -10
-18 0 -25 7 -29 27 -3 16 -3 31 -1 35 6 9 37 -2 46 -16z m472 11 c31 6 76 -28
76 -59 0 -11 4 -17 9 -14 5 3 15 -2 22 -10 12 -15 14 -14 21 7 5 16 6 11 2
-13 -3 -25 -1 -38 6 -38 7 0 9 -9 6 -22 -3 -13 -3 -17 0 -10 11 23 31 13 26
-13 -2 -14 -10 -25 -18 -25 -21 0 -67 20 -61 27 12 11 -23 63 -43 63 -24 0
-27 -32 -5 -54 22 -22 18 -32 -12 -30 -24 1 -33 12 -71 87 -47 92 -50 123 -9
108 12 -5 35 -7 51 -4z m229 -39 c15 -17 24 -35 21 -40 -3 -5 15 -30 40 -56
51 -52 55 -62 27 -62 -39 0 -52 10 -40 32 10 19 9 20 -10 15 -11 -3 -21 -1
-21 4 0 10 -10 23 -41 58 -8 9 -13 23 -11 29 2 7 -3 12 -12 12 -17 0 -18 20
-1 32 16 12 21 10 48 -24z m977 -22 c0 -3 -4 -8 -10 -11 -5 -3 -10 -1 -10 4 0
6 5 11 10 11 6 0 10 -2 10 -4z m-1980 -16 c0 -5 -4 -10 -10 -10 -5 0 -10 5
-10 10 0 6 5 10 10 10 6 0 10 -4 10 -10z m319 1 c8 -5 12 -18 8 -30 -4 -16 -1
-21 13 -21 11 0 21 -4 24 -8 3 -5 24 -9 46 -10 39 -2 76 -23 63 -36 -4 -3 -28
-6 -55 -6 -34 0 -50 -4 -54 -15 -4 -9 -14 -14 -23 -13 -10 2 -15 -3 -13 -14 3
-21 -23 -25 -32 -5 -3 8 -8 7 -16 -6 -9 -14 -23 -17 -81 -15 -75 2 -96 9 -84
28 5 8 29 10 84 5 42 -4 72 -3 68 1 -5 5 7 14 25 21 31 11 32 12 11 19 -21 6
-27 23 -26 72 1 6 -6 12 -14 12 -11 0 -11 3 -1 15 15 16 37 19 57 6z m1601
-36 c-12 -15 -30 -12 -30 5 0 5 7 7 15 4 10 -4 15 0 16 12 0 12 3 14 6 6 3 -7
-1 -19 -7 -27z m-7 -43 c-4 -10 -2 -13 5 -8 7 4 12 2 12 -3 0 -6 -16 -11 -35
-11 -19 0 -35 5 -35 11 0 6 6 9 14 6 19 -8 28 3 15 19 -8 9 -5 11 10 7 13 -3
18 -10 14 -21z m-1363 8 c0 -5 -4 -10 -10 -10 -5 0 -10 5 -10 10 0 6 5 10 10
10 6 0 10 -4 10 -10z m-285 -20 c3 -5 2 -10 -4 -10 -5 0 -13 5 -16 10 -3 6 -2
10 4 10 5 0 13 -4 16 -10z m753 -10 c7 -12 8 -20 2 -20 -5 0 -10 5 -10 10 0 6
-7 10 -15 10 -8 0 -15 5 -15 10 0 17 25 11 38 -10z m-1508 0 c0 -5 -2 -10 -4
-10 -3 0 -8 5 -11 10 -3 6 -1 10 4 10 6 0 11 -4 11 -10z m1009 -33 c1 -5 -3
-5 -9 -2 -5 3 -10 16 -9 28 0 21 1 21 9 2 5 -11 9 -24 9 -28z m-1039 23 c0 -5
-4 -10 -10 -10 -5 0 -10 -9 -10 -20 0 -21 -15 -27 -25 -10 -3 6 -2 10 4 10 5
0 13 9 16 20 7 21 25 28 25 10z m633 3 c-7 -2 -19 -2 -25 0 -7 3 -2 5 12 5 14
0 19 -2 13 -5z m-1016 -14 c-14 -8 -22 -8 -30 0 -8 8 -3 11 19 11 25 -1 27 -2
11 -11z m59 2 c10 8 14 8 14 0 0 -6 10 -10 23 -10 12 0 36 -4 52 -9 25 -9 15
-10 -57 -11 -53 -1 -88 3 -88 9 0 6 7 10 15 10 8 0 15 6 16 13 0 9 2 9 6 -1 4
-10 8 -10 19 -1z m-117 -30 c-15 -5 -22 6 -14 19 6 9 10 9 16 -1 5 -8 4 -15
-2 -18z m587 20 c-3 -5 6 -11 19 -14 17 -3 29 1 35 12 11 18 13 11 4 -13 -5
-13 -24 -16 -105 -16 -59 0 -99 4 -99 10 0 6 24 10 54 10 30 0 58 5 61 10 3 6
13 10 21 10 8 0 13 -4 10 -9z m164 -4 c0 -8 19 -12 62 -12 41 0 63 -4 66 -13
3 -10 -19 -12 -99 -10 -71 2 -104 7 -107 16 -2 8 7 12 27 12 17 0 31 5 31 10
0 6 5 10 10 10 6 0 10 -6 10 -13z m-1237 -4 c-13 -2 -35 -2 -50 0 -16 2 -5 4
22 4 28 0 40 -2 28 -4z m120 0 c-7 -2 -19 -2 -25 0 -7 3 -2 5 12 5 14 0 19 -2
13 -5z m167 -1 c0 -5 -31 -9 -70 -10 -38 -1 -70 3 -70 9 0 5 32 9 70 9 39 0
70 -4 70 -8z m170 -2 c0 -6 -28 -10 -65 -10 -37 0 -65 4 -65 10 0 6 28 10 65
10 37 0 65 -4 65 -10z m1477 -3 c-4 -10 3 -12 24 -9 17 3 29 0 29 -7 0 -7 -23
-11 -60 -11 -33 0 -60 4 -60 10 0 6 9 10 20 10 11 0 20 5 20 10 0 6 7 10 16
10 9 0 14 -6 11 -13z m579 -17 c24 0 44 5 44 10 0 6 11 10 25 10 19 0 23 -4
18 -17 -4 -11 -3 -14 5 -9 7 4 12 2 12 -4 0 -7 -34 -10 -105 -9 -58 1 -105 5
-105 10 0 5 7 9 15 9 8 0 15 5 15 11 0 5 5 7 10 4 6 -3 11 0 11 7 1 7 3 5 6
-4 3 -14 15 -18 49 -18z m-1656 10 c0 -6 -27 -10 -60 -10 -33 0 -60 4 -60 9 0
5 27 9 60 10 33 0 60 -4 60 -9z m640 -4 c0 -8 -13 -15 -32 -17 -52 -6 -88 1
-88 17 0 11 15 14 60 14 45 0 60 -4 60 -14z m706 5 c-3 -5 0 -9 7 -8 36 1 57
-4 52 -13 -8 -12 -106 -7 -103 6 2 5 6 8 11 7 4 -2 7 2 7 7 0 6 7 10 16 10 8
0 13 -4 10 -9z m492 -6 c11 19 11 19 12 1 0 -15 3 -16 15 -6 13 11 14 10 9 -4
-4 -12 -19 -16 -55 -16 -29 0 -49 4 -49 11 0 6 7 8 15 5 10 -3 18 1 22 11 6
15 7 15 13 -2 7 -19 7 -19 18 0z m-1148 -5 c0 -5 -7 -7 -15 -4 -8 4 -15 8 -15
10 0 2 7 4 15 4 8 0 15 -4 15 -10z m310 0 c0 -5 -16 -10 -35 -10 -19 0 -35 4
-35 8 0 4 16 9 35 10 19 2 35 -2 35 -8z m935 0 c-8 -13 38 -8 47 5 4 6 8 2 8
-7 0 -15 -9 -18 -52 -18 -48 0 -50 1 -32 15 22 17 38 20 29 5z m-655 -8 c0 -5
-27 -9 -60 -10 -33 0 -60 3 -60 9 0 5 27 9 60 9 33 0 60 -4 60 -8z m255 -2
c-7 -12 -105 -9 -105 3 0 4 25 7 56 7 36 0 53 -4 49 -10z m662 -4 c4 -3 -37
-6 -90 -6 -53 0 -97 3 -97 8 0 8 178 7 187 -2z m-2297 -46 c0 -5 -5 -10 -11
-10 -5 0 -7 5 -4 10 3 6 8 10 11 10 2 0 4 -4 4 -10z m1700 -30 c0 -5 -4 -10
-10 -10 -5 0 -10 5 -10 10 0 6 5 10 10 10 6 0 10 -4 10 -10z m-2350 -20 c0 -5
-5 -10 -11 -10 -5 0 -7 5 -4 10 3 6 8 10 11 10 2 0 4 -4 4 -10z m77 4 c-3 -3
-12 -4 -19 -1 -8 3 -5 6 6 6 11 1 17 -2 13 -5z m135 -19 c3 -14 1 -25 -3 -25
-5 0 -9 11 -9 25 0 14 2 25 4 25 2 0 6 -11 8 -25z m218 21 c0 -3 -4 -8 -10
-11 -5 -3 -10 -1 -10 4 0 6 5 11 10 11 6 0 10 -2 10 -4z m50 -11 c0 -8 -6 -15
-12 -15 -10 0 -10 -2 0 -9 10 -6 9 -11 -4 -22 -10 -8 -15 -9 -11 -2 4 6 2 13
-4 15 -16 5 -1 48 17 48 8 0 14 -7 14 -15z m2113 -5 c-3 -11 -9 -17 -14 -15
-10 7 -1 35 11 35 5 0 6 -9 3 -20z m344 -2 c-3 -8 -6 -5 -6 6 -1 11 2 17 5 13
3 -3 4 -12 1 -19z m-2697 -4 c0 -8 -4 -12 -10 -9 -5 3 -10 10 -10 16 0 5 5 9
10 9 6 0 10 -7 10 -16z m2140 -6 c0 -6 -6 -5 -15 2 -8 7 -15 14 -15 16 0 2 7
1 15 -2 8 -4 15 -11 15 -16z m-2211 -2 c8 -10 9 -16 1 -21 -5 -3 -10 1 -10 9
0 8 -10 17 -22 19 -22 4 -22 4 -2 6 12 0 27 -5 33 -13z m491 4 c0 -5 -2 -10
-4 -10 -3 0 -8 5 -11 10 -3 6 -1 10 4 10 6 0 11 -4 11 -10z m1075 0 c3 -5 1
-10 -4 -10 -6 0 -11 5 -11 10 0 6 2 10 4 10 3 0 8 -4 11 -10z m-1698 -26 c-7
-7 -37 7 -37 17 0 6 9 5 21 -1 11 -7 19 -14 16 -16z m1943 16 c0 -5 -2 -10 -4
-10 -3 0 -8 5 -11 10 -3 6 -1 10 4 10 6 0 11 -4 11 -10z m44 -6 c3 -8 2 -12
-4 -9 -6 3 -10 10 -10 16 0 14 7 11 14 -7z m-1914 -4 c0 -5 -5 -10 -11 -10 -5
0 -7 5 -4 10 3 6 8 10 11 10 2 0 4 -4 4 -10z m284 -11 c5 -4 0 -7 -11 -6 -11
0 -25 7 -33 15 -11 12 -9 13 11 7 13 -4 28 -11 33 -16z m1710 5 c3 -8 2 -13
-3 -9 -5 3 -21 1 -35 -4 -20 -8 -24 -7 -20 4 3 8 15 16 27 18 12 2 23 5 23 6
1 0 5 -6 8 -15z m-239 -4 c3 -5 1 -10 -4 -10 -6 0 -11 5 -11 10 0 6 2 10 4 10
3 0 8 -4 11 -10z m775 0 c0 -5 -5 -10 -11 -10 -5 0 -7 5 -4 10 3 6 8 10 11 10
2 0 4 -4 4 -10z m-46 -15 c3 3 3 1 -2 -5 -4 -5 -18 -7 -31 -3 -16 4 -19 8 -10
14 7 4 18 4 25 -1 6 -6 14 -8 18 -5z m-224 1 c0 -2 -7 -6 -15 -10 -8 -3 -15
-1 -15 4 0 6 7 10 15 10 8 0 15 -2 15 -4z m360 -6 c0 -5 -5 -10 -11 -10 -5 0
-7 5 -4 10 3 6 8 10 11 10 2 0 4 -4 4 -10z m145 0 c3 -5 -1 -10 -10 -10 -9 0
-13 5 -10 10 3 6 8 10 10 10 2 0 7 -4 10 -10z m-1428 -82 c-3 -8 -6 -5 -6 6
-1 11 2 17 5 13 3 -3 4 -12 1 -19z m-994 -23 c-7 -21 -13 -19 -13 6 0 11 4 18
10 14 5 -3 7 -12 3 -20z m297 -10 c0 -8 -4 -15 -10 -15 -5 0 -10 7 -10 15 0 8
5 15 10 15 6 0 10 -7 10 -15z"/>
<path d="M920 620 c8 -5 20 -10 25 -10 6 0 3 5 -5 10 -8 5 -19 10 -25 10 -5 0
-3 -5 5 -10z"/>
<path d="M837 539 c-9 -5 -22 -7 -27 -4 -6 3 -10 1 -10 -4 0 -6 -7 -11 -16
-11 -10 0 -14 -6 -11 -14 4 -9 -1 -17 -11 -19 -10 -3 -6 -5 10 -6 20 -1 26 3
22 14 -4 8 -1 15 5 15 6 0 10 -5 9 -11 -6 -25 23 -19 34 8 7 15 17 31 23 35
16 12 -7 9 -28 -3z"/>
<path d="M1733 597 c-5 -7 -10 -22 -11 -34 -1 -19 4 -21 51 -21 29 0 45 2 37
5 -44 14 -46 15 -25 23 17 7 17 9 3 9 -10 1 -18 5 -18 10 0 15 -28 21 -37 8z"/>
<path d="M2640 551 c0 -16 6 -20 25 -19 23 2 37 28 16 28 -5 0 -16 3 -25 6
-12 4 -16 0 -16 -15z"/>
<path d="M1840 920 c0 -5 7 -10 15 -10 8 0 15 5 15 10 0 6 -7 10 -15 10 -8 0
-15 -4 -15 -10z"/>
<path d="M475 831 c-3 -5 2 -11 10 -15 8 -3 17 -1 20 3 3 5 -2 11 -10 15 -8 3
-17 1 -20 -3z"/>
<path d="M582 788 c-7 -7 -12 -17 -12 -22 0 -6 5 -4 10 4 9 13 11 13 19 0 6
-8 12 -12 15 -10 2 3 -1 13 -8 22 -10 13 -15 15 -24 6z"/>
<path d="M658 783 c7 -3 16 -2 19 1 4 3 -2 6 -13 5 -11 0 -14 -3 -6 -6z"/>
<path d="M805 780 c3 -5 8 -10 11 -10 2 0 4 5 4 10 0 6 -5 10 -11 10 -5 0 -7
-4 -4 -10z"/>
<path d="M1620 775 c0 -8 5 -15 10 -15 6 0 10 7 10 15 0 8 -4 15 -10 15 -5 0
-10 -7 -10 -15z"/>
<path d="M870 776 c0 -2 8 -10 18 -17 15 -13 16 -12 3 4 -13 16 -21 21 -21 13z"/>
<path d="M3407 768 c-7 -5 -2 -8 13 -8 14 0 32 5 40 10 11 7 8 9 -13 8 -15 -1
-33 -6 -40 -10z"/>
<path d="M758 753 c7 -3 16 -2 19 1 4 3 -2 6 -13 5 -11 0 -14 -3 -6 -6z"/>
<path d="M1820 740 c13 -24 17 -25 17 -5 0 8 -6 16 -14 19 -11 4 -11 1 -3 -14z"/>
<path d="M631 736 c8 -9 99 -12 99 -4 0 4 -23 8 -52 8 -28 0 -49 -2 -47 -4z"/>
<path d="M890 733 c0 -5 12 -9 27 -10 19 -1 22 1 12 8 -17 11 -39 12 -39 2z"/>
<path d="M955 730 c-3 -5 -2 -10 4 -10 5 0 13 5 16 10 3 6 2 10 -4 10 -5 0
-13 -4 -16 -10z"/>
<path d="M1520 733 c0 -15 18 -35 27 -32 5 2 1 12 -9 22 -10 9 -18 14 -18 10z"/>
<path d="M2005 730 c-3 -6 1 -7 9 -4 18 7 21 14 7 14 -6 0 -13 -4 -16 -10z"/>
<path d="M1640 722 c0 -4 16 -9 35 -10 19 -2 35 1 35 6 0 5 -16 9 -35 10 -19
1 -35 -2 -35 -6z"/>
<path d="M1780 726 c0 -2 7 -6 15 -10 8 -3 15 -1 15 4 0 6 -7 10 -15 10 -8 0
-15 -2 -15 -4z"/>
<path d="M1720 710 c0 -12 28 -21 35 -11 2 5 -4 11 -15 14 -11 3 -20 2 -20 -3z"/>
<path d="M2090 710 c0 -5 4 -10 9 -10 6 0 13 5 16 10 3 6 -1 10 -9 10 -9 0
-16 -4 -16 -10z"/>
<path d="M1148 703 c7 -3 16 -2 19 1 4 3 -2 6 -13 5 -11 0 -14 -3 -6 -6z"/>
<path d="M1320 699 c0 -5 5 -7 10 -4 6 3 10 8 10 11 0 2 -4 4 -10 4 -5 0 -10
-5 -10 -11z"/>
<path d="M1990 700 c-9 -6 -10 -10 -3 -10 6 0 15 5 18 10 8 12 4 12 -15 0z"/>
<path d="M3160 695 c0 -8 2 -15 4 -15 2 0 6 7 10 15 3 8 1 15 -4 15 -6 0 -10
-7 -10 -15z"/>
<path d="M2065 680 c-3 -5 -1 -10 4 -10 6 0 11 5 11 10 0 6 -2 10 -4 10 -3 0
-8 -4 -11 -10z"/>
<path d="M3168 653 c6 -2 18 -2 25 0 6 3 1 5 -13 5 -14 0 -19 -2 -12 -5z"/>
<path d="M2142 225 c11 -25 28 -34 28 -16 0 9 -28 41 -35 41 -3 0 1 -11 7 -25z"/>
<path d="M1870 224 c0 -8 5 -12 10 -9 6 4 8 11 5 16 -9 14 -15 11 -15 -7z"/>
<path d="M1067 223 c-4 -3 -7 -16 -7 -28 0 -12 -6 -30 -14 -40 -13 -18 -11
-55 3 -55 4 0 8 -7 8 -15 0 -8 -4 -15 -9 -15 -4 0 -8 -7 -8 -15 0 -11 11 -15
38 -15 l38 0 -1 58 c-2 42 -6 58 -17 60 -9 2 -15 15 -16 33 -1 34 -5 43 -15
32z"/>
<path d="M1308 202 c9 -11 21 -17 26 -14 5 3 1 11 -9 19 -27 19 -38 16 -17 -5z"/>
<path d="M1818 187 c-7 -8 -20 -16 -28 -20 -9 -3 -10 -6 -2 -6 14 -1 17 -41 2
-41 -5 0 -10 8 -10 17 0 9 -2 14 -5 11 -8 -8 14 -113 25 -116 6 -2 10 -10 10
-18 0 -8 5 -14 10 -14 6 0 9 12 8 28 -4 68 2 104 17 98 8 -3 15 -1 15 4 0 6
-4 10 -9 10 -14 0 -20 37 -8 49 8 8 8 11 0 11 -6 0 -18 -6 -25 -13z"/>
<path d="M2105 190 c-3 -5 -1 -10 4 -10 6 0 11 5 11 10 0 6 -2 10 -4 10 -3 0
-8 -4 -11 -10z"/>
<path d="M871 180 c1 -8 -3 -28 -10 -45 -9 -21 -9 -36 -2 -53 6 -12 11 -36 11
-52 0 -17 4 -30 9 -30 12 0 9 176 -3 187 -4 4 -7 1 -5 -7z"/>
<path d="M2158 159 c3 -21 -2 -40 -17 -59 -11 -16 -18 -36 -15 -44 7 -17 -3
-19 -66 -17 -24 1 -31 -1 -21 -7 7 -6 10 -15 7 -21 -5 -7 9 -11 43 -11 41 0
49 3 45 15 -4 8 -1 15 5 15 6 0 11 -4 11 -10 0 -15 29 -12 46 5 9 8 27 15 42
15 23 1 24 2 10 11 -10 5 -25 26 -35 47 -9 20 -22 40 -27 44 -6 4 -7 10 -3 14
7 7 -10 34 -22 34 -4 0 -5 -14 -3 -31z m-63 -147 c-3 -3 -11 0 -18 7 -9 10 -8
11 6 5 10 -3 15 -9 12 -12z"/>
<path d="M2510 180 c0 -5 5 -10 11 -10 5 0 7 5 4 10 -3 6 -8 10 -11 10 -2 0
-4 -4 -4 -10z"/>
<path d="M2200 173 c0 -5 5 -15 10 -23 8 -12 10 -11 10 8 0 12 -4 22 -10 22
-5 0 -10 -3 -10 -7z"/>
<path d="M1437 146 c-6 -15 1 -26 15 -26 11 0 10 27 -1 34 -5 3 -11 0 -14 -8z"/>
<path d="M2127 143 c-2 -10 -8 -27 -12 -38 -7 -17 -5 -16 13 4 22 25 29 51 13
51 -5 0 -11 -8 -14 -17z"/>
<path d="M1406 91 c-8 -61 -2 -72 37 -64 33 6 36 32 6 59 -12 10 -25 28 -29
38 -5 15 -9 5 -14 -33z m27 -46 c-5 -13 -23 -22 -23 -11 0 15 14 35 21 31 4
-3 6 -12 2 -20z"/>
<path d="M2064 123 c3 -8 6 -17 6 -19 0 -11 29 -2 33 10 4 9 -3 16 -19 19 -19
3 -24 1 -20 -10z"/>
<path d="M1583 80 c-1 -52 8 -61 33 -35 9 9 11 15 4 15 -6 0 -10 8 -9 18 3 35
-1 52 -14 52 -9 0 -13 -16 -14 -50z"/>
<path d="M2230 103 c1 -10 26 -43 32 -43 3 0 3 11 0 25 -4 22 -33 37 -32 18z"/>
<path d="M1290 33 c0 -6 -10 -14 -22 -18 -16 -4 -19 -8 -10 -12 16 -6 49 23
39 33 -4 4 -7 3 -7 -3z"/>
<path d="M1100 15 c0 -8 9 -15 20 -15 13 0 18 5 14 15 -4 8 -12 15 -20 15 -8
0 -14 -7 -14 -15z"/>
<path d="M1865 19 c-10 -15 3 -25 16 -12 7 7 7 13 1 17 -6 3 -14 1 -17 -5z"/>
<path d="M1035 10 c-3 -5 1 -10 9 -10 8 0 18 5 21 10 3 6 -1 10 -9 10 -8 0
-18 -4 -21 -10z"/>
<path d="M2200 10 c0 -5 5 -10 10 -10 6 0 10 5 10 10 0 6 -4 10 -10 10 -5 0
-10 -4 -10 -10z"/>
<path d="M2250 10 c0 -5 5 -10 10 -10 6 0 10 5 10 10 0 6 -4 10 -10 10 -5 0
-10 -4 -10 -10z"/>
</g>
</svg>
